<svg id="svg" width="192" height="418" viewBox="0 0 192 418" fill="none" xmlns="http://www.w3.org/2000/svg" class="hidden">
               <!-- 0 -->
               <path d="M192.545 339.27V86.7504C192.545 69.0503 192.545 43.0904 173.665 24.2104C158.325 8.28036 132.955 0.610352 96.3751 0.610352C60.3851 0.610352 35.0151 8.28036 19.0851 24.2104C0.205133 43.0904 0.795132 69.0503 0.795132 86.7504V339.27C0.795132 356.38 0.205133 382.93 19.0851 401.81C35.0151 417.15 60.3851 424.82 96.3751 424.82C132.955 424.82 158.325 417.15 173.665 401.81C192.545 382.93 192.545 356.38 192.545 339.27ZM103.455 356.38C103.455 359.92 100.505 363.46 96.3751 363.46C92.2451 363.46 89.2951 359.92 89.2951 356.38V69.6403C89.2951 65.5104 92.2451 62.5604 96.3751 62.5604C100.505 62.5604 103.455 65.5104 103.455 69.6403V356.38Z" fill="#FF4545"></path>
               <!-- 2 -->
               <path d="M191.195 142.107V86.0568C191.195 68.9468 191.785 42.3968 172.905 23.5168C157.565 8.17684 132.195 0.506836 95.6152 0.506836C59.0353 0.506836 34.2552 8.17684 18.3252 23.5168C-0.554756 42.3968 0.0352447 68.9468 0.0352447 86.0568V165.117H88.5353V68.9468C88.5353 64.8168 91.4852 61.8668 95.6152 61.8668C99.7452 61.8668 102.695 64.8168 102.695 68.9468V148.597C102.695 162.167 100.335 171.607 94.4352 179.867L22.4552 275.447C8.88524 293.737 0.0352447 309.077 0.0352447 334.447V417.047H191.195V348.607H88.5353V332.677C88.5353 326.777 90.8953 319.107 94.4352 314.387L167.595 217.037C184.115 195.207 191.195 175.737 191.195 142.107Z" fill="#FF4545"></path>
            </svg>